:SAMPLES-PER-SECOND 30
:FULLY-SPECIFIED
:DEGREES
98
root  10.8565 38.1173 -3.90882 -46.5103 -84.3799 39.6209
RightUpLeg  -17.7412 -7.50707 -8.83882
RightLeg  22.9401 5.04013 2.11978
RightFoot  0.46891 -0.33913 3.29851
RightToes  -4.65663e-010 0 -3.6325e-017
Spine  6.57824 -0.895779 1.69829
Spine1  7.60495 1.64837 -8.33097
HEad  -14.9925 1.04848 -6.50836
LeftShoulder1  -0.683148 5.21983 -33.6466
LeftArm  22.4455 -8.95775 -45.5565
LeftForeArm  23.635 -33.2414 -6.01327
LeftHand  -0.0685694 7.63147 -1.32847
RightShoulder  -0.66084 -5.38546 28.4183
RightArm  22.413 -4.98716 43.3636
RightForeArm  14.8474 15.3573 6.19751
RightHand  0.0287431 2.7698 0.181587
LeftUpLeg  16.8736 5.54336 8.28171
LeftLeg  24.9036 -13.0738 -6.22778
LeftFoot  -11.1693 0.0868692 -9.77092
LeftToes  8.74931e-010 -1.05764e-010 1.2659e-011
99
root  9.85234 38.2151 -4.03543 -53.3113 -85.0229 47.1344
RightUpLeg  -17.3573 -9.28549 -8.52579
RightLeg  23.909 7.26911 3.29276
RightFoot  -1.93449 -0.315746 3.70753
RightToes  -4.65663e-010 0 -3.6325e-017
Spine  4.97967 -1.55081 4.33089
Spine1  8.48817 0.551381 -5.83286
HEad  -14.9786 2.90138 -8.56855
LeftShoulder1  -0.707368 5.25834 -34.1459
LeftArm  24.8938 -7.88382 -44.9968
LeftForeArm  20.842 -28.4981 -5.01336
LeftHand  -0.0526636 6.58307 -1.45968
RightShoulder  -0.621182 -5.27925 28.2556
RightArm  17.0653 -2.40144 42.9368
RightForeArm  17.009 13.0838 6.28255
RightHand  0.0581375 3.30932 0.533848
LeftUpLeg  15.7005 6.2392 8.74174
LeftLeg  27.8744 -12.1746 -6.55776
LeftFoot  -6.93401 0.532053 -12.5015
LeftToes  8.74931e-010 -1.05764e-010 1.2659e-011
100
root  8.9707 38.3242 -4.22103 -66.4652 -85.3323 61.105
RightUpLeg  -16.9858 -10.1419 -8.57108
RightLeg  24.3002 8.91677 4.15812
RightFoot  -4.70318 -0.357363 5.63185
RightToes  -4.65663e-010 0 -3.6325e-017
Spine  4.57603 -1.5089 6.43063
Spine1  8.05261 0.172834 -4.10268
HEad  -14.6596 3.64837 -9.91161
LeftShoulder1  -0.688698 5.20475 -34.3124
LeftArm  28.3437 -7.18539 -45.0667
LeftForeArm  18.2465 -24.0196 -4.28996
LeftHand  -0.086012 7.80013 -1.94004
RightShoulder  -0.700254 -5.49173 28.5513
RightArm  13.7671 -0.701479 42.2175
RightForeArm  15.7949 12.1664 5.90571
RightHand  0.0332308 3.42391 0.219934
LeftUpLeg  12.7 7.34209 8.51048
LeftLeg  32.9826 -8.93514 -5.83506
LeftFoot  -0.848408 1.21615 -13.4242
LeftToes  8.74931e-010 -1.05764e-010 1.2659e-011
101
root  8.12085 38.4797 -4.41242 -90.247 -85.0862 85.2674
RightUpLeg  -16.0261 -9.73067 -9.22244
RightLeg  24.1308 10.3864 4.83595
RightFoot  -7.52093 -0.32191 8.14129
RightToes  -4.65663e-010 0 -3.6325e-017
Spine  4.70336 -1.15431 8.02906
Spine1  7.92958 0.432583 -3.29371
HEad  -15.5985 4.49104 -9.75122
LeftShoulder1  -0.675916 5.18299 -34.0803
LeftArm  27.0097 -5.01038 -44.5868
LeftForeArm  20.7015 -21.7808 -4.43426
LeftHand  -0.108967 7.7924 -3.00557
RightShoulder  -0.715939 -5.52184 28.8089
RightArm  11.8355 1.05839 42.2854
RightForeArm  12.4347 11.14 5.84325
RightHand  -0.0832808 4.16827 -1.30512
LeftUpLeg  10.0455 9.714 7.73922
LeftLeg  37.7692 -5.34024 -4.06347
LeftFoot  4.87578 1.59336 -11.2994
LeftToes  8.74931e-010 -1.05764e-010 1.2659e-011
102
root  7.36861 38.7113 -4.64418 -103.254 -84.0703 99.1156
RightUpLeg  -15.1473 -9.54357 -9.93802
RightLeg  22.9405 11.5974 5.11325
RightFoot  -9.88224 -0.208433 10.8391
RightToes  -4.65663e-010 0 -3.6325e-017
Spine  4.2743 -0.93758 9.23871
Spine1  8.24762 0.647779 -2.99507
HEad  -16.8817 4.99752 -9.34682
LeftShoulder1  -0.698958 5.2248 -34.4376
LeftArm  24.5723 -2.95724 -42.6067
LeftForeArm  22.8977 -20.8803 -4.93937
LeftHand  -0.110345 7.8765 -2.94349
RightShoulder  -0.721071 -5.54056 28.7367
RightArm  11.0702 3.03989 43.8261
RightForeArm  12.3896 10.4808 5.8738
RightHand  -0.156938 3.76801 -2.24513
LeftUpLeg  6.53594 12.0226 6.73982
LeftLeg  41.9775 -3.34804 -2.85763
LeftFoot  4.95981 1.54098 -10.9453
LeftToes  8.74931e-010 -1.05764e-010 1.2659e-011
103
root  6.61528 38.9802 -4.89197 -114.175 -82.8546 110.861
RightUpLeg  -13.7476 -10.0523 -10.4243
RightLeg  20.6657 13.8302 5.3501
RightFoot  -11.4822 -0.0592725 13.4809
RightToes  -4.65663e-010 0 -3.6325e-017
Spine  4.22905 -0.444473 10.7959
Spine1  7.7978 1.32564 -3.86991
HEad  -18.1516 5.13014 -9.08739
LeftShoulder1  -0.651577 5.1136 -34.3012
LeftArm  22.7329 -0.553667 -40.515
LeftForeArm  22.9885 -20.2654 -5.31187
LeftHand  -0.100537 7.5876 -2.85286
RightShoulder  -0.700064 -5.49064 28.5597
RightArm  11.5919 4.2141 45.6137
RightForeArm  12.8173 10.7663 5.99545
RightHand  -0.182745 3.96277 -2.53707
LeftUpLeg  2.85473 14.1491 5.40545
LeftLeg  45.0897 -3.24603 -3.08396
LeftFoot  3.98295 1.49159 -11.2357
LeftToes  8.74931e-010 -1.05764e-010 1.2659e-011
104
root  5.89196 39.2161 -5.11224 -121.566 -81.1688 118.567
RightUpLeg  -12.0387 -11.4437 -11.3884
RightLeg  18.7547 17.4241 5.81615
RightFoot  -13.0064 0.148917 16.4153
RightToes  -4.65663e-010 0 -3.6325e-017
Spine  4.80281 0.084556 11.9205
Spine1  7.20878 2.16308 -4.88786
HEad  -18.5029 4.59815 -9.55103
LeftShoulder1  -0.622713 5.05137 -34.0744
LeftArm  21.3783 1.97371 -38.369
LeftForeArm  21.3144 -20.1451 -5.39257
LeftHand  -0.0781721 7.14151 -2.32581
RightShoulder  -0.70451 -5.5044 28.5408
RightArm  13.0248 4.90927 47.2888
RightForeArm  11.899 12.3473 5.96846
RightHand  -0.144026 4.0792 -2.03479
LeftUpLeg  -0.200476 16.0346 3.42165
LeftLeg  46.2835 -3.76817 -3.80035
LeftFoot  3.45044 1.49849 -11.6929
LeftToes  8.74931e-010 -1.05764e-010 1.2659e-011
105
root  5.14432 39.4082 -5.37966 -126.491 -79.9183 123.742
RightUpLeg  -10.249 -12.3868 -11.6622
RightLeg  16.7526 19.717 5.56032
RightFoot  -14.0027 0.310827 17.4192
RightToes  -4.65663e-010 0 -3.6325e-017
Spine  4.8729 0.478592 13.1448
Spine1  7.24512 2.83602 -6.00741
HEad  -19.319 4.87259 -10.3533
LeftShoulder1  -0.675764 5.18377 -34.0553
LeftArm  19.4197 3.61307 -36.0998
LeftForeArm  20.9131 -19.6295 -5.68308
LeftHand  -0.112992 7.93316 -2.98725
RightShoulder  -0.671811 -5.42533 28.2711
RightArm  15.377 5.70113 49.4577
RightForeArm  10.3276 14.49 5.80133
RightHand  -0.116861 4.17061 -1.68035
LeftUpLeg  -3.13804 17.3479 1.75103
LeftLeg  46.0622 -4.47346 -4.5468
LeftFoot  1.61857 1.43494 -12.6678
LeftToes  8.74931e-010 -1.05764e-010 1.2659e-011
106
root  4.41456 39.5418 -5.66791 -130.665 -79.0655 128.272
RightUpLeg  -8.83064 -12.8184 -11.5408
RightLeg  15.3549 21.489 5.33484
RightFoot  -14.8504 0.438984 17.5216
RightToes  -4.65663e-010 0 -3.6325e-017
Spine  4.73519 0.925877 13.9873
Spine1  7.28274 3.37325 -6.48553
HEad  -19.6853 4.58137 -10.6612
LeftShoulder1  -0.668891 5.16542 -34.0854
LeftArm  16.3588 4.62353 -34.2256
LeftForeArm  22.8527 -18.1552 -6.52971
LeftHand  -0.102922 7.9995 -2.44757
RightShoulder  -0.655656 -5.38155 28.2152
RightArm  18.1609 6.51457 51.2945
RightForeArm  8.14321 17.1063 5.36775
RightHand  -0.218245 5.14086 -2.71534
LeftUpLeg  -6.23742 18.0342 0.310294
LeftLeg  44.7561 -5.2771 -5.18564
LeftFoot  0.00888189 1.22609 -12.299
LeftToes  8.74931e-010 -1.05764e-010 1.2659e-011
107
root  3.71492 39.6433 -5.95363 -132.857 -78.6451 130.599
RightUpLeg  -7.04069 -13.2031 -11.5614
RightLeg  13.8652 22.8593 5.11943
RightFoot  -15.7484 0.588231 17.9304
RightToes  -4.65663e-010 0 -3.6325e-017
Spine  4.9347 1.06932 14.6961
Spine1  7.00362 3.63078 -7.22001
HEad  -19.9885 4.4653 -10.7549
LeftShoulder1  -0.648702 5.12402 -33.8746
LeftArm  11.5485 5.03927 -32.8356
LeftForeArm  26.8426 -15.7772 -7.71057
LeftHand  -0.126578 8.38357 -2.9607
RightShoulder  -0.662824 -5.40431 28.1768
RightArm  20.6589 7.20947 52.8452
RightForeArm  6.33177 20.4649 4.77088
RightHand  -0.253138 5.61218 -2.99131
LeftUpLeg  -9.15968 17.3271 -1.28449
LeftLeg  42.2462 -5.42544 -4.87742
LeftFoot  -0.713135 1.06289 -11.3557
LeftToes  8.74931e-010 -1.05764e-010 1.2659e-011
108
root  3.03449 39.6928 -6.23456 -135.125 -78.7671 132.739
RightUpLeg  -4.85716 -13.4916 -11.5052
RightLeg  12.3758 23.7902 5.09331
RightFoot  -16.7613 0.784693 18.8409
RightToes  -4.65663e-010 0 -3.6325e-017
Spine  5.51578 1.13739 15.2911
Spine1  6.51695 3.72126 -7.47159
HEad  -20.1329 4.63916 -10.6656
LeftShoulder1  -0.638194 5.09372 -33.9778
LeftArm  5.66709 4.90588 -31.8927
LeftForeArm  31.3924 -12.5887 -8.94353
LeftHand  -0.122199 8.73608 -2.43827
RightShoulder  -0.621285 -5.30006 27.8647
RightArm  21.0501 7.51243 53.9225
RightForeArm  6.00375 23.8621 4.75523
RightHand  -0.254035 5.2786 -3.07215
LeftUpLeg  -11.6393 15.7161 -2.39343
LeftLeg  38.7686 -5.17767 -4.08459
LeftFoot  -1.5027 0.92801 -10.6559
LeftToes  8.74931e-010 -1.05764e-010 1.2659e-011
109
root  2.35702 39.7297 -6.51102 -138.139 -78.4569 135.773
RightUpLeg  -3.00231 -13.6561 -11.5599
RightLeg  10.9639 24.7688 5.12569
RightFoot  -17.5541 0.947177 19.4937
RightToes  -4.65663e-010 0 -3.6325e-017
Spine  6.02565 1.36704 15.4532
Spine1  6.14509 4.00702 -7.98538
HEad  -20.6854 5.09886 -10.9342
LeftShoulder1  -0.666693 5.17572 -33.7039
LeftArm  2.64913 5.01188 -31.6063
LeftForeArm  33.1865 -10.833 -9.30159
LeftHand  -0.138637 9.22901 -2.53023
RightShoulder  -0.602748 -5.24205 27.9333
RightArm  20.2349 8.02315 54.3175
RightForeArm  7.07411 27.0809 5.45596
RightHand  -0.290595 6.00643 -3.28795
LeftUpLeg  -13.7199 14.0758 -3.71083
LeftLeg  33.9884 -4.52372 -2.93917
LeftFoot  -2.38928 0.792068 -9.9201
LeftToes  8.74931e-010 -1.05764e-010 1.2659e-011
